<svg xmlns="http://www.w3.org/2000/svg" viewBox="0 0 264 88"><title>default-skin 2</title><path d="M67 59v3.6c-6.3.8-9.2 5.5-10 9.4 2.2-2.7 5.6-4.9 10-4.9v3.5l6-5.7-6-5.9zM13 29v-5h2v3h3v2h-5zm0-14h5v2h-3v3h-2v-5zm18 0v5h-2v-3h-3v-2h5zm0 14h-5v-2h3v-3h2v5zm31-5v5h-2v-3h-3v-2h5zm0-4h-5v-2h3v-3h2v5zm8 0v-5h2v3h3v2h-5zm0 4h5v2h-3v3h-2v-5zM20.6 66L15 60.4l1.4-1.4 5.6 5.6 5.6-5.6 1.4 1.4-5.6 5.6 5.6 5.6-1.4 1.4-5.6-5.6-5.6 5.6-1.4-1.4 5.6-5.6zM161 28.6l-3.3-3.3-1.4 1.4 3.3 3.3 1.4-1.4zm-8.6-.9c-3.5 0-6.4-2.9-6.4-6.4s2.9-6.4 6.4-6.4c3.5 0 6.4 2.9 6.4 6.4s-2.9 6.4-6.4 6.4zm0-11.2c-2.7 0-4.8 2.2-4.8 4.8s2.2 4.8 4.8 4.8c2.7 0 4.8-2.2 4.8-4.8s-2.2-4.8-4.8-4.8z"/><path d="M149.8 20.9h5.1v1h-5.1v-1z"/><g><path d="M117 28.6l-1.4 1.4-3.3-3.3 1.4-1.4 3.3 3.3zm-8.6-.9c-3.5 0-6.4-2.9-6.4-6.4s2.9-6.4 6.4-6.4c3.5 0 6.4 2.9 6.4 6.4s-2.9 6.4-6.4 6.4zm0-11.2c-2.7 0-4.8 2.2-4.8 4.8s2.2 4.8 4.8 4.8c2.7 0 4.8-2.2 4.8-4.8s-2.2-4.8-4.8-4.8z"/><path d="M105.8 20.9h5.1v1h-5.1v-1z"/><path d="M108.9 18.8l-.1 5.1h-1l.1-5.1h1z"/></g><path d="M154.7 64.3l-5.3-5.3 5.3-5.3c.4-.4.4-1 0-1.4-.4-.4-1-.4-1.4 0l-6 6c-.4.4-.4 1 0 1.4l6 6c.2.2.4.3.7.3s.5-.1.7-.3c.4-.4.4-1 0-1.4zm-45.4 0l5.3-5.3-5.3-5.3c-.4-.4-.4-1 0-1.4.4-.4 1-.4 1.4 0l6 6c.4.4.4 1 0 1.4l-6 6c-.2.2-.4.3-.7.3-.3 0-.5-.1-.7-.3-.4-.4-.4-1 0-1.4z"/></svg>